<mxfile host="app.diagrams.net" agent="Mozilla/5.0 (Macintosh; Intel Mac OS X 10_15_7) AppleWebKit/537.36 (KHTML, like Gecko) Chrome/134.0.0.0 Safari/537.36" version="26.1.1">
  <diagram name="Sweet Creations Dashboard" id="FBnjQsNu70keJYz-c06J">
    <mxGraphModel dx="1242" dy="722" grid="0" gridSize="10" guides="1" tooltips="1" connect="1" arrows="1" fold="1" page="0" pageScale="1" pageWidth="827" pageHeight="1169" math="0" shadow="0">
      <root>
        <mxCell id="0" />
        <mxCell id="1" parent="0" />
        <mxCell id="Z4AfXQ1_p0H_mxOL6kx--1" value="" style="rounded=0;whiteSpace=wrap;html=1;fillColor=#f8f8f8;strokeColor=none;" vertex="1" parent="1">
          <mxGeometry width="800" height="500" as="geometry" />
        </mxCell>
        <mxCell id="Z4AfXQ1_p0H_mxOL6kx--2" value="" style="rounded=0;whiteSpace=wrap;html=1;fillColor=#FF85A2;strokeColor=none;" vertex="1" parent="1">
          <mxGeometry width="800" height="60" as="geometry" />
        </mxCell>
        <mxCell id="Z4AfXQ1_p0H_mxOL6kx--3" value="Sweet Creations Dashboard" style="text;html=1;strokeColor=none;fillColor=none;align=left;verticalAlign=middle;whiteSpace=wrap;rounded=0;fontColor=#FFFFFF;fontSize=22;fontStyle=1" vertex="1" parent="1">
          <mxGeometry x="30" y="15" width="300" height="30" as="geometry" />
        </mxCell>
        <mxCell id="Z4AfXQ1_p0H_mxOL6kx--4" value="Anushka | Logout" style="text;html=1;strokeColor=none;fillColor=none;align=right;verticalAlign=middle;whiteSpace=wrap;rounded=0;fontColor=#FFFFFF;fontSize=14;" vertex="1" parent="1">
          <mxGeometry x="650" y="15" width="120" height="30" as="geometry" />
        </mxCell>
        <mxCell id="Z4AfXQ1_p0H_mxOL6kx--5" value="" style="rounded=0;whiteSpace=wrap;html=1;fillColor=#FFFFFF;strokeColor=#E0E0E0;" vertex="1" parent="1">
          <mxGeometry y="60" width="200" height="440" as="geometry" />
        </mxCell>
        <mxCell id="Z4AfXQ1_p0H_mxOL6kx--6" value="" style="rounded=0;whiteSpace=wrap;html=1;fillColor=#F8BBD0;strokeColor=none;" vertex="1" parent="1">
          <mxGeometry y="60" width="200" height="50" as="geometry" />
        </mxCell>
        <mxCell id="Z4AfXQ1_p0H_mxOL6kx--7" value="Dashboard" style="text;html=1;strokeColor=none;fillColor=none;align=left;verticalAlign=middle;whiteSpace=wrap;rounded=0;fontColor=#333333;fontSize=16;" vertex="1" parent="1">
          <mxGeometry x="20" y="75" width="180" height="20" as="geometry" />
        </mxCell>
        <mxCell id="Z4AfXQ1_p0H_mxOL6kx--8" value="" style="rounded=0;whiteSpace=wrap;html=1;fillColor=#FFFFFF;strokeColor=none;" vertex="1" parent="1">
          <mxGeometry y="110" width="200" height="50" as="geometry" />
        </mxCell>
        <mxCell id="Z4AfXQ1_p0H_mxOL6kx--9" value="Orders" style="text;html=1;strokeColor=none;fillColor=none;align=left;verticalAlign=middle;whiteSpace=wrap;rounded=0;fontColor=#333333;fontSize=16;" vertex="1" parent="1">
          <mxGeometry x="20" y="125" width="180" height="20" as="geometry" />
        </mxCell>
        <mxCell id="Z4AfXQ1_p0H_mxOL6kx--10" value="" style="rounded=0;whiteSpace=wrap;html=1;fillColor=#FFFFFF;strokeColor=none;" vertex="1" parent="1">
          <mxGeometry y="160" width="200" height="50" as="geometry" />
        </mxCell>
        <mxCell id="Z4AfXQ1_p0H_mxOL6kx--11" value="Customers" style="text;html=1;strokeColor=none;fillColor=none;align=left;verticalAlign=middle;whiteSpace=wrap;rounded=0;fontColor=#333333;fontSize=16;" vertex="1" parent="1">
          <mxGeometry x="20" y="175" width="180" height="20" as="geometry" />
        </mxCell>
        <mxCell id="Z4AfXQ1_p0H_mxOL6kx--12" value="" style="rounded=0;whiteSpace=wrap;html=1;fillColor=#FFFFFF;strokeColor=none;" vertex="1" parent="1">
          <mxGeometry y="210" width="200" height="50" as="geometry" />
        </mxCell>
        <mxCell id="Z4AfXQ1_p0H_mxOL6kx--13" value="Products" style="text;html=1;strokeColor=none;fillColor=none;align=left;verticalAlign=middle;whiteSpace=wrap;rounded=0;fontColor=#333333;fontSize=16;" vertex="1" parent="1">
          <mxGeometry x="20" y="225" width="180" height="20" as="geometry" />
        </mxCell>
        <mxCell id="Z4AfXQ1_p0H_mxOL6kx--14" value="" style="rounded=0;whiteSpace=wrap;html=1;fillColor=#FFFFFF;strokeColor=none;" vertex="1" parent="1">
          <mxGeometry y="260" width="200" height="50" as="geometry" />
        </mxCell>
        <mxCell id="Z4AfXQ1_p0H_mxOL6kx--15" value="Reports" style="text;html=1;strokeColor=none;fillColor=none;align=left;verticalAlign=middle;whiteSpace=wrap;rounded=0;fontColor=#333333;fontSize=16;" vertex="1" parent="1">
          <mxGeometry x="20" y="275" width="180" height="20" as="geometry" />
        </mxCell>
        <mxCell id="Z4AfXQ1_p0H_mxOL6kx--16" value="" style="rounded=1;whiteSpace=wrap;html=1;fillColor=#FFFFFF;strokeColor=#E0E0E0;" vertex="1" parent="1">
          <mxGeometry x="220" y="80" width="560" height="50" as="geometry" />
        </mxCell>
        <mxCell id="Z4AfXQ1_p0H_mxOL6kx--17" value="Tomorrow&#39;s Orders" style="text;html=1;strokeColor=none;fillColor=none;align=left;verticalAlign=middle;whiteSpace=wrap;rounded=0;fontColor=#333333;fontSize=18;fontStyle=1" vertex="1" parent="1">
          <mxGeometry x="240" y="95" width="200" height="20" as="geometry" />
        </mxCell>
        <mxCell id="Z4AfXQ1_p0H_mxOL6kx--18" value="View All" style="text;html=1;strokeColor=none;fillColor=none;align=right;verticalAlign=middle;whiteSpace=wrap;rounded=0;fontColor=#FF85A2;fontSize=14;" vertex="1" parent="1">
          <mxGeometry x="670" y="95" width="70" height="20" as="geometry" />
        </mxCell>
        <mxCell id="Z4AfXQ1_p0H_mxOL6kx--19" value="" style="rounded=1;whiteSpace=wrap;html=1;fillColor=#FFFFFF;strokeColor=#E0E0E0;" vertex="1" parent="1">
          <mxGeometry x="220" y="140" width="560" height="150" as="geometry" />
        </mxCell>
        <mxCell id="Z4AfXQ1_p0H_mxOL6kx--20" value="" style="rounded=1;whiteSpace=wrap;html=1;fillColor=#F8BBD0;strokeColor=none;" vertex="1" parent="1">
          <mxGeometry x="220" y="140" width="560" height="30" as="geometry" />
        </mxCell>
        <mxCell id="Z4AfXQ1_p0H_mxOL6kx--21" value="Order ID" style="text;html=1;strokeColor=none;fillColor=none;align=left;verticalAlign=middle;whiteSpace=wrap;rounded=0;fontColor=#333333;fontSize=14;" vertex="1" parent="1">
          <mxGeometry x="240" y="145" width="70" height="20" as="geometry" />
        </mxCell>
        <mxCell id="Z4AfXQ1_p0H_mxOL6kx--22" value="Customer" style="text;html=1;strokeColor=none;fillColor=none;align=left;verticalAlign=middle;whiteSpace=wrap;rounded=0;fontColor=#333333;fontSize=14;" vertex="1" parent="1">
          <mxGeometry x="330" y="145" width="70" height="20" as="geometry" />
        </mxCell>
        <mxCell id="Z4AfXQ1_p0H_mxOL6kx--23" value="Cake Type" style="text;html=1;strokeColor=none;fillColor=none;align=left;verticalAlign=middle;whiteSpace=wrap;rounded=0;fontColor=#333333;fontSize=14;" vertex="1" parent="1">
          <mxGeometry x="450" y="145" width="70" height="20" as="geometry" />
        </mxCell>
        <mxCell id="Z4AfXQ1_p0H_mxOL6kx--24" value="Delivery Time" style="text;html=1;strokeColor=none;fillColor=none;align=left;verticalAlign=middle;whiteSpace=wrap;rounded=0;fontColor=#333333;fontSize=14;" vertex="1" parent="1">
          <mxGeometry x="570" y="145" width="90" height="20" as="geometry" />
        </mxCell>
        <mxCell id="Z4AfXQ1_p0H_mxOL6kx--25" value="Status" style="text;html=1;strokeColor=none;fillColor=none;align=left;verticalAlign=middle;whiteSpace=wrap;rounded=0;fontColor=#333333;fontSize=14;" vertex="1" parent="1">
          <mxGeometry x="690" y="145" width="70" height="20" as="geometry" />
        </mxCell>
        <mxCell id="Z4AfXQ1_p0H_mxOL6kx--26" value="" style="endArrow=none;html=1;strokeColor=#E0E0E0;" edge="1" parent="1">
          <mxGeometry width="50" height="50" relative="1" as="geometry">
            <mxPoint x="220" y="170" as="sourcePoint" />
            <mxPoint x="780" y="170" as="targetPoint" />
          </mxGeometry>
        </mxCell>
        <mxCell id="Z4AfXQ1_p0H_mxOL6kx--27" value="#1001" style="text;html=1;strokeColor=none;fillColor=none;align=left;verticalAlign=middle;whiteSpace=wrap;rounded=0;fontColor=#333333;fontSize=14;" vertex="1" parent="1">
          <mxGeometry x="240" y="175" width="70" height="20" as="geometry" />
        </mxCell>
        <mxCell id="Z4AfXQ1_p0H_mxOL6kx--28" value="Priya Ramgoolam" style="text;html=1;strokeColor=none;fillColor=none;align=left;verticalAlign=middle;whiteSpace=wrap;rounded=0;fontColor=#333333;fontSize=14;" vertex="1" parent="1">
          <mxGeometry x="330" y="175" width="120" height="20" as="geometry" />
        </mxCell>
        <mxCell id="Z4AfXQ1_p0H_mxOL6kx--29" value="Napolitaine" style="text;html=1;strokeColor=none;fillColor=none;align=left;verticalAlign=middle;whiteSpace=wrap;rounded=0;fontColor=#333333;fontSize=14;" vertex="1" parent="1">
          <mxGeometry x="450" y="175" width="120" height="20" as="geometry" />
        </mxCell>
        <mxCell id="Z4AfXQ1_p0H_mxOL6kx--30" value="10:00 AM" style="text;html=1;strokeColor=none;fillColor=none;align=left;verticalAlign=middle;whiteSpace=wrap;rounded=0;fontColor=#333333;fontSize=14;" vertex="1" parent="1">
          <mxGeometry x="570" y="175" width="90" height="20" as="geometry" />
        </mxCell>
        <mxCell id="Z4AfXQ1_p0H_mxOL6kx--31" value="Pending" style="rounded=1;whiteSpace=wrap;html=1;fillColor=#FFC107;strokeColor=none;fontSize=12;align=center;" vertex="1" parent="1">
          <mxGeometry x="690" y="175" width="70" height="20" as="geometry" />
        </mxCell>
        <mxCell id="Z4AfXQ1_p0H_mxOL6kx--32" value="" style="endArrow=none;html=1;strokeColor=#E0E0E0;" edge="1" parent="1">
          <mxGeometry width="50" height="50" relative="1" as="geometry">
            <mxPoint x="220" y="200" as="sourcePoint" />
            <mxPoint x="780" y="200" as="targetPoint" />
          </mxGeometry>
        </mxCell>
        <mxCell id="Z4AfXQ1_p0H_mxOL6kx--33" value="#1002" style="text;html=1;strokeColor=none;fillColor=none;align=left;verticalAlign=middle;whiteSpace=wrap;rounded=0;fontColor=#333333;fontSize=14;" vertex="1" parent="1">
          <mxGeometry x="240" y="205" width="70" height="20" as="geometry" />
        </mxCell>
        <mxCell id="Z4AfXQ1_p0H_mxOL6kx--34" value="Jean-Pierre Laval" style="text;html=1;strokeColor=none;fillColor=none;align=left;verticalAlign=middle;whiteSpace=wrap;rounded=0;fontColor=#333333;fontSize=14;" vertex="1" parent="1">
          <mxGeometry x="330" y="205" width="120" height="20" as="geometry" />
        </mxCell>
        <mxCell id="Z4AfXQ1_p0H_mxOL6kx--35" value="Wedding Cake" style="text;html=1;strokeColor=none;fillColor=none;align=left;verticalAlign=middle;whiteSpace=wrap;rounded=0;fontColor=#333333;fontSize=14;" vertex="1" parent="1">
          <mxGeometry x="450" y="205" width="120" height="20" as="geometry" />
        </mxCell>
        <mxCell id="Z4AfXQ1_p0H_mxOL6kx--36" value="2:00 PM" style="text;html=1;strokeColor=none;fillColor=none;align=left;verticalAlign=middle;whiteSpace=wrap;rounded=0;fontColor=#333333;fontSize=14;" vertex="1" parent="1">
          <mxGeometry x="570" y="205" width="90" height="20" as="geometry" />
        </mxCell>
        <mxCell id="Z4AfXQ1_p0H_mxOL6kx--37" value="Ready" style="rounded=1;whiteSpace=wrap;html=1;fillColor=#4CAF50;strokeColor=none;fontSize=12;align=center;fontColor=#FFFFFF;" vertex="1" parent="1">
          <mxGeometry x="690" y="205" width="70" height="20" as="geometry" />
        </mxCell>
        <mxCell id="Z4AfXQ1_p0H_mxOL6kx--38" value="" style="endArrow=none;html=1;strokeColor=#E0E0E0;" edge="1" parent="1">
          <mxGeometry width="50" height="50" relative="1" as="geometry">
            <mxPoint x="220" y="230" as="sourcePoint" />
            <mxPoint x="780" y="230" as="targetPoint" />
          </mxGeometry>
        </mxCell>
        <mxCell id="Z4AfXQ1_p0H_mxOL6kx--39" value="#1003" style="text;html=1;strokeColor=none;fillColor=none;align=left;verticalAlign=middle;whiteSpace=wrap;rounded=0;fontColor=#333333;fontSize=14;" vertex="1" parent="1">
          <mxGeometry x="240" y="235" width="70" height="20" as="geometry" />
        </mxCell>
        <mxCell id="Z4AfXQ1_p0H_mxOL6kx--40" value="Marie-Claire Ah Keng" style="text;html=1;strokeColor=none;fillColor=none;align=left;verticalAlign=middle;whiteSpace=wrap;rounded=0;fontColor=#333333;fontSize=14;" vertex="1" parent="1">
          <mxGeometry x="330" y="235" width="120" height="20" as="geometry" />
        </mxCell>
        <mxCell id="Z4AfXQ1_p0H_mxOL6kx--41" value="Cupcakes (24)" style="text;html=1;strokeColor=none;fillColor=none;align=left;verticalAlign=middle;whiteSpace=wrap;rounded=0;fontColor=#333333;fontSize=14;" vertex="1" parent="1">
          <mxGeometry x="450" y="235" width="120" height="20" as="geometry" />
        </mxCell>
        <mxCell id="Z4AfXQ1_p0H_mxOL6kx--42" value="3:30 PM" style="text;html=1;strokeColor=none;fillColor=none;align=left;verticalAlign=middle;whiteSpace=wrap;rounded=0;fontColor=#333333;fontSize=14;" vertex="1" parent="1">
          <mxGeometry x="570" y="235" width="90" height="20" as="geometry" />
        </mxCell>
        <mxCell id="Z4AfXQ1_p0H_mxOL6kx--43" value="Urgent" style="rounded=1;whiteSpace=wrap;html=1;fillColor=#F44336;strokeColor=none;fontSize=12;align=center;fontColor=#FFFFFF;" vertex="1" parent="1">
          <mxGeometry x="690" y="235" width="70" height="20" as="geometry" />
        </mxCell>
        <mxCell id="Z4AfXQ1_p0H_mxOL6kx--44" value="" style="rounded=1;whiteSpace=wrap;html=1;fillColor=#FFFFFF;strokeColor=#E0E0E0;" vertex="1" parent="1">
          <mxGeometry x="220" y="310" width="260" height="170" as="geometry" />
        </mxCell>
        <mxCell id="Z4AfXQ1_p0H_mxOL6kx--45" value="Recent Customers" style="text;html=1;strokeColor=none;fillColor=none;align=left;verticalAlign=middle;whiteSpace=wrap;rounded=0;fontColor=#333333;fontSize=18;fontStyle=1" vertex="1" parent="1">
          <mxGeometry x="240" y="325" width="160" height="20" as="geometry" />
        </mxCell>
        <mxCell id="Z4AfXQ1_p0H_mxOL6kx--46" value="View All" style="text;html=1;strokeColor=none;fillColor=none;align=right;verticalAlign=middle;whiteSpace=wrap;rounded=0;fontColor=#FF85A2;fontSize=14;" vertex="1" parent="1">
          <mxGeometry x="390" y="325" width="70" height="20" as="geometry" />
        </mxCell>
        <mxCell id="Z4AfXQ1_p0H_mxOL6kx--47" value="• Priya Ramgoolam - 3 orders" style="text;html=1;strokeColor=none;fillColor=none;align=left;verticalAlign=middle;whiteSpace=wrap;rounded=0;fontColor=#333333;fontSize=14;" vertex="1" parent="1">
          <mxGeometry x="240" y="355" width="220" height="20" as="geometry" />
        </mxCell>
        <mxCell id="Z4AfXQ1_p0H_mxOL6kx--48" value="• Vikash Dookhun - 1 order" style="text;html=1;strokeColor=none;fillColor=none;align=left;verticalAlign=middle;whiteSpace=wrap;rounded=0;fontColor=#333333;fontSize=14;" vertex="1" parent="1">
          <mxGeometry x="240" y="385" width="220" height="20" as="geometry" />
        </mxCell>
        <mxCell id="Z4AfXQ1_p0H_mxOL6kx--49" value="• Natacha Lam - 2 orders" style="text;html=1;strokeColor=none;fillColor=none;align=left;verticalAlign=middle;whiteSpace=wrap;rounded=0;fontColor=#333333;fontSize=14;" vertex="1" parent="1">
          <mxGeometry x="240" y="415" width="220" height="20" as="geometry" />
        </mxCell>
        <mxCell id="Z4AfXQ1_p0H_mxOL6kx--50" value="" style="rounded=1;whiteSpace=wrap;html=1;fillColor=#FFFFFF;strokeColor=#E0E0E0;" vertex="1" parent="1">
          <mxGeometry x="500" y="310" width="280" height="170" as="geometry" />
        </mxCell>
        <mxCell id="Z4AfXQ1_p0H_mxOL6kx--51" value="Monthly Sales" style="text;html=1;strokeColor=none;fillColor=none;align=left;verticalAlign=middle;whiteSpace=wrap;rounded=0;fontColor=#333333;fontSize=18;fontStyle=1" vertex="1" parent="1">
          <mxGeometry x="520" y="325" width="160" height="20" as="geometry" />
        </mxCell>
        <mxCell id="Z4AfXQ1_p0H_mxOL6kx--52" value="" style="endArrow=none;html=1;strokeColor=#CCCCCC;" edge="1" parent="1">
          <mxGeometry width="50" height="50" relative="1" as="geometry">
            <mxPoint x="520" y="420" as="sourcePoint" />
            <mxPoint x="760" y="420" as="targetPoint" />
          </mxGeometry>
        </mxCell>
        <mxCell id="Z4AfXQ1_p0H_mxOL6kx--53" value="" style="rounded=0;whiteSpace=wrap;html=1;fillColor=#FF85A2;strokeColor=none;" vertex="1" parent="1">
          <mxGeometry x="540" y="380" width="30" height="40" as="geometry" />
        </mxCell>
        <mxCell id="Z4AfXQ1_p0H_mxOL6kx--54" value="" style="rounded=0;whiteSpace=wrap;html=1;fillColor=#FF85A2;strokeColor=none;" vertex="1" parent="1">
          <mxGeometry x="590" y="360" width="30" height="60" as="geometry" />
        </mxCell>
        <mxCell id="Z4AfXQ1_p0H_mxOL6kx--55" value="" style="rounded=0;whiteSpace=wrap;html=1;fillColor=#FF85A2;strokeColor=none;" vertex="1" parent="1">
          <mxGeometry x="640" y="340" width="30" height="80" as="geometry" />
        </mxCell>
        <mxCell id="Z4AfXQ1_p0H_mxOL6kx--56" value="" style="rounded=0;whiteSpace=wrap;html=1;fillColor=#FF85A2;strokeColor=none;" vertex="1" parent="1">
          <mxGeometry x="690" y="370" width="30" height="50" as="geometry" />
        </mxCell>
        <mxCell id="Z4AfXQ1_p0H_mxOL6kx--57" value="Jan" style="text;html=1;strokeColor=none;fillColor=none;align=center;verticalAlign=middle;whiteSpace=wrap;rounded=0;fontColor=#666666;fontSize=12;" vertex="1" parent="1">
          <mxGeometry x="540" y="425" width="30" height="20" as="geometry" />
        </mxCell>
        <mxCell id="Z4AfXQ1_p0H_mxOL6kx--58" value="Feb" style="text;html=1;strokeColor=none;fillColor=none;align=center;verticalAlign=middle;whiteSpace=wrap;rounded=0;fontColor=#666666;fontSize=12;" vertex="1" parent="1">
          <mxGeometry x="590" y="425" width="30" height="20" as="geometry" />
        </mxCell>
        <mxCell id="Z4AfXQ1_p0H_mxOL6kx--59" value="Mar" style="text;html=1;strokeColor=none;fillColor=none;align=center;verticalAlign=middle;whiteSpace=wrap;rounded=0;fontColor=#666666;fontSize=12;" vertex="1" parent="1">
          <mxGeometry x="640" y="425" width="30" height="20" as="geometry" />
        </mxCell>
        <mxCell id="Z4AfXQ1_p0H_mxOL6kx--60" value="Apr" style="text;html=1;strokeColor=none;fillColor=none;align=center;verticalAlign=middle;whiteSpace=wrap;rounded=0;fontColor=#666666;fontSize=12;" vertex="1" parent="1">
          <mxGeometry x="690" y="425" width="30" height="20" as="geometry" />
        </mxCell>
      </root>
    </mxGraphModel>
  </diagram>
</mxfile>
